<?xml version="1.0" encoding="UTF-8"?>
<svg width="97px" height="116px" viewBox="0 0 97 116" version="1.1" xmlns="http://www.w3.org/2000/svg" xmlns:xlink="http://www.w3.org/1999/xlink">
    <!-- Generator: Sketch 45.2 (43514) - http://www.bohemiancoding.com/sketch -->
    <title>Group 7 Copy</title>
    <desc>Created with Sketch.</desc>
    <defs></defs>
    <g id="Circles-1st-draft-designs" stroke="none" stroke-width="1" fill="none" fill-rule="evenodd">
        <g id="Circles-log-in-screen-2" transform="translate(-130.000000, -83.000000)" fill="#FFFFFF">
            <g id="Group-7-Copy" transform="translate(130.000000, 83.000000)">
                <circle id="Oval-3" cx="87.8064367" cy="19.8064367" r="8.80643671"></circle>
                <circle id="Oval-3-Copy-8" cx="17.7598244" cy="57.7598244" r="7.75982437"></circle>
                <circle id="Oval-3-Copy-9" cx="29.977977" cy="14.977977" r="6.97797696"></circle>
                <circle id="Oval-3-Copy-10" cx="29.977977" cy="99.977977" r="6.97797696"></circle>
                <circle id="Oval-3-Copy-2" cx="72.1109531" cy="7.1109531" r="6.1109531"></circle>
                <circle id="Oval-3-Copy-11" cx="24.6039712" cy="39.6039712" r="5.60397121"></circle>
                <circle id="Oval-3-Copy-13" cx="15.2339159" cy="25.2339159" r="5.23391589"></circle>
                <circle id="Oval-3-Copy-14" cx="15.2339159" cy="89.2339159" r="5.23391589"></circle>
                <circle id="Oval-3-Copy-15" cx="48.2339159" cy="99.2339159" r="5.23391589"></circle>
                <circle id="Oval-3-Copy-16" cx="48.2339159" cy="15.2339159" r="5.23391589"></circle>
                <circle id="Oval-3-Copy-12" cx="24.6039712" cy="74.9156775" r="5.60397121"></circle>
                <circle id="Oval-3-Copy-5" cx="72.1109531" cy="107.110953" r="6.1109531"></circle>
                <circle id="Oval-3-Copy-3" cx="60.6207233" cy="3.6207233" r="3.6207233"></circle>
                <circle id="Oval-3-Copy-6" cx="60.6207233" cy="111.620723" r="3.6207233"></circle>
                <circle id="Oval-3-Copy-17" cx="60.6207233" cy="95.6207233" r="3.6207233"></circle>
                <circle id="Oval-3-Copy-18" cx="60.6207233" cy="18.6207233" r="3.6207233"></circle>
                <circle id="Oval-3-Copy-19" cx="6.6207233" cy="34.6207233" r="3.6207233"></circle>
                <circle id="Oval-3-Copy-20" cx="6.6207233" cy="79.6207233" r="3.6207233"></circle>
                <circle id="Oval-3-Copy-4" cx="50.9636886" cy="1.96368859" r="1.96368859"></circle>
                <circle id="Oval-3-Copy-7" cx="50.9636886" cy="111.963689" r="1.96368859"></circle>
                <circle id="Oval-3-Copy-21" cx="34.2689845" cy="83.2689845" r="2.26898449"></circle>
                <circle id="Oval-3-Copy-25" cx="2.26898449" cy="70.2689845" r="2.26898449"></circle>
                <circle id="Oval-3-Copy-26" cx="2.26898449" cy="44.2689845" r="2.26898449"></circle>
                <circle id="Oval-3-Copy-22" cx="34.2689845" cy="31.2689845" r="2.26898449"></circle>
                <circle id="Oval-3-Copy-23" cx="69.2689845" cy="24.2689845" r="2.26898449"></circle>
                <circle id="Oval-3-Copy-24" cx="69.2689845" cy="90.2689845" r="2.26898449"></circle>
                <circle id="Oval-3-Copy" cx="87.5595703" cy="94.5595703" r="8.55957031"></circle>
            </g>
        </g>
    </g>
</svg>